<?xml version="1.0" standalone="no"?>
<!DOCTYPE svg PUBLIC "-//W3C//DTD SVG 20010904//EN"
 "http://www.w3.org/TR/2001/REC-SVG-20010904/DTD/svg10.dtd">
<svg version="1.0" xmlns="http://www.w3.org/2000/svg"
 width="700.000000pt" height="700.000000pt" viewBox="0 0 700.000000 700.000000"
 preserveAspectRatio="xMidYMid meet">
<metadata>
Created by potrace 1.11, written by Peter Selinger 2001-2013
</metadata>
<g transform="translate(0.000000,700.000000) scale(0.100000,-0.100000)"
fill="#000000" stroke="none">
<path d="M454 6534 c9 -22 145 -471 151 -497 2 -10 18 -64 35 -120 67 -219 93
-305 204 -672 167 -553 234 -778 266 -885 16 -52 45 -149 65 -215 20 -66 47
-158 61 -205 27 -89 68 -223 84 -275 5 -16 38 -127 74 -245 35 -118 115 -381
176 -585 62 -203 134 -443 161 -533 27 -90 51 -167 53 -171 3 -4 7 -18 10 -32
4 -22 106 -363 201 -674 21 -66 38 -124 39 -130 1 -5 15 -50 30 -100 15 -49
38 -126 51 -170 14 -44 40 -132 60 -195 61 -200 137 -454 147 -490 5 -19 16
-56 24 -83 l16 -47 30 32 c35 38 106 113 308 328 200 213 263 279 300 320 18
19 64 69 104 110 134 142 344 365 376 400 18 19 64 69 104 110 39 42 130 138
201 215 72 76 150 160 175 186 25 25 101 106 170 180 69 73 157 167 197 209
39 41 81 86 92 98 11 13 82 90 159 170 76 81 151 161 166 177 15 17 83 89 151
160 67 72 137 146 155 165 18 19 88 94 155 165 68 72 137 146 155 165 18 19
87 94 155 165 67 72 137 146 155 165 18 19 90 96 160 170 70 74 144 153 165
175 85 91 424 452 477 508 20 21 86 90 145 154 59 63 147 156 195 206 89 94
91 101 37 110 -13 3 -64 15 -114 27 -49 12 -101 24 -114 26 -13 3 -51 12 -85
20 -34 8 -72 17 -86 20 -14 3 -52 12 -85 21 -33 8 -71 17 -85 19 -14 3 -33 7
-42 10 -9 3 -25 6 -35 8 -10 2 -124 29 -253 60 -129 30 -302 71 -385 90 -82
19 -267 62 -410 96 -143 34 -267 63 -275 65 -8 2 -152 36 -320 75 -306 73
-499 118 -533 125 -10 2 -26 6 -35 9 -9 3 -28 7 -42 10 -14 2 -52 11 -85 19
-33 9 -71 18 -85 21 -14 2 -113 25 -220 51 -107 25 -202 48 -210 50 -8 2 -46
11 -85 20 -75 18 -75 18 -150 35 -27 6 -97 22 -155 36 -58 14 -116 28 -130 30
-14 3 -52 12 -85 21 -33 8 -67 16 -75 18 -8 2 -94 22 -190 45 -96 23 -185 43
-197 46 -29 6 -221 51 -298 70 -33 8 -69 16 -80 18 -11 3 -108 26 -215 51
-107 26 -206 49 -219 51 -23 5 -152 35 -356 84 -73 17 -189 45 -240 56 -11 3
-31 7 -43 10 -13 3 -87 20 -165 39 -78 18 -160 37 -181 41 -36 6 -39 5 -32
-12z"/>
</g>
</svg>
