<?xml version="1.0" encoding="utf-8"?>
<!-- Generator: Adobe Illustrator 21.1.0, SVG Export Plug-In . SVG Version: 6.00 Build 0)  -->
<svg version="1.1" xmlns="http://www.w3.org/2000/svg" xmlns:xlink="http://www.w3.org/1999/xlink" x="0px" y="0px"
	 viewBox="0 0 530 600" style="enable-background:new 0 0 530 600;" xml:space="preserve">
<style type="text/css">
	.st0{fill:none;stroke:#FFD05A;stroke-width:13.07;stroke-linecap:round;stroke-miterlimit:10;}
	.st1{fill:none;stroke:#00A99D;stroke-width:13.07;stroke-linecap:round;stroke-miterlimit:10;}
	.st2{fill:none;stroke:#5F7DBF;stroke-width:13.07;stroke-linecap:round;stroke-miterlimit:10;}
	.st3{fill:none;stroke:#FF5662;stroke-width:13.07;stroke-linecap:round;stroke-miterlimit:10;}
	.st4{fill:none;stroke:#F6F6F6;stroke-width:8;stroke-linecap:round;stroke-miterlimit:10;stroke-dasharray:0,885; animation: metro 8s linear infinite;}
            
            @keyframes metro{
                from{stroke-dashoffset:880;}
                to{stroke-dashoffset:0;}
            }
</style>
<g id="map">
	<g>
		<path class="st0" d="M373.1,305l19.7,25.5c2.1,2.7,5.3,4.4,8.8,4.6l30,1.7c2.2,0.1,4.4-0.4,6.4-1.4l35.6-19.3"/>
		<path class="st1" d="M130.9,586.6l33.2-25.6c6.1-4.7,14.9-3.6,19.6,2.5h0c4.7,6.1,13.5,7.2,19.6,2.5l37.7-29.1
			c6.1-4.7,7.2-13.5,2.5-19.6L197.5,458c-4.7-6.1-3.6-14.9,2.5-19.6l210.1-162c6.1-4.7,7.2-13.5,2.5-19.6l-5.1-6.6
			c-4.7-6.1-3.6-14.9,2.5-19.6l60-46.3c6.1-4.7,7.2-13.5,2.5-19.6l-6.8-8.8c-4.7-6.1-3.6-14.9,2.5-19.6l32-24.6"/>
		<path class="st2" d="M115.8,380.4l112.5-86.7c5.7-4.4,6.7-12.5,2.3-18.1L195.4,230c-4.4-5.7-3.3-13.8,2.3-18.1L323,115.4"/>
		<path class="st3" d="M28.9,267.8l161.9,210c4.8,6.3,13.8,7.4,20.1,2.6l165.4-127.5c6.3-4.8,7.4-13.8,2.6-20.1L135.5,17.1"/>
	</g>
</g>
<g id="path">
	<path class="st4" d="M115.8,380.4l78.4,101.8c2.9,3.8,8.4,4.5,12.2,1.6l0,0c3.8-2.9,4.5-8.4,1.6-12.2l-10-13
		c-4.8-6.3-3.7-15.3,2.6-20.1l156-120.2c3.8-2.9,4.5-8.4,1.6-12.2l-100-129.8c-2.9-3.8-8.4-4.5-12.2-1.6l-47.2,36.4
		c-6.2,4.8-7.4,13.7-2.6,19.9l33.7,43.7c4.7,6.1,3.6,14.9-2.5,19.6L115.8,380.4z"/>
</g>
</svg>
