<svg xmlns="http://www.w3.org/2000/svg" viewBox="0 0 612.67 271.4"><defs><style>.cls-1{fill:#fff;}</style></defs><title>Asset 2</title><g id="Layer_2" data-name="Layer 2"><g id="Layer_1-2" data-name="Layer 1"><path class="cls-1" d="M400.64,263.11c-1.77.53-2.65-1.35-4.36-.54v8.83c-1.62-.55-1.47-1.94-2.08-2.81-1.07-1.52-.6-4.28-3.26-4.5-2.92-.24-1.86,3.06-3.95,4.55-1.29-5.15-2.47-10.07-3.79-14.95-.43-1.59-.2-3.92-3.1-3.49s-2.13,2.53-2.17,4.24c-.06,3.66,0,7.32,0,11.17-2.1-4.68-1.8-9.68-2.91-14.52-1.93.14-1.22,2.65-2.95,3.56A266.49,266.49,0,0,1,365,228.6c-5.71-25-16.46-48-28.5-70.51-10.8-20.2-21.74-40.39-29.44-62.1-.47-1.34-.42-3.61-1.95-3.77-1.91-.21-3.14,1.8-3.91,3.34-3.63,7.29-7.5,14.52-10.48,22.08-9.91,25.13-22,49.26-34.95,72.84C245.61,209,232.83,226,218.92,242c-2.77,3.17-6.67,4.32-11.27,3.22a60.78,60.78,0,0,1-20.87-9.08c-7.14-4.94-7.83-10-2-16.17,12.89-13.58,23.66-28.76,33.76-44.49,17.71-27.58,35.9-54.84,50.34-84.38a101.64,101.64,0,0,0,6.63-18.21c1.39-5.12,5-7.11,9.75-7.79,3-.42,6-.64,8.93-1,5.49-.74,6.46-2.26,5.31-7.64-2.06-9.59-4.1-19.19-6-28.81-1.53-7.77,2.36-16.25,9.19-20.56,2.21-1.39,5-2.38,4.25-6.24,2.35,3.17,4.79,5.71,9,5.11,3.48-.5,7.22.74,10.11-2.78,1.72-2.09,2.18,1.72,3.93,1.64,1.41-1,.94-2.89,1.9-4.8,4.15,7.06,8.77,13.7,9.09,21.8.91,22.78,7.11,44.16,15.68,65.09,8.95,21.88,18.51,43.39,30.48,63.86,9.14,15.63,17.55,31.8,20.68,50,2,11.38,2.61,22.8-1.52,34C402.92,243.83,401.72,253.42,400.64,263.11Z"/><path class="cls-1" d="M.16,219c8.46,0,16.92,0,25.38,0,17.4-.09,34.89-1.47,51.23-7.12,19.32-6.69,37-17,48.91-34.61a21.22,21.22,0,0,0,1.16-22.78c-2.09-3.89-7-5.41-10.9-7.58-12.84-7.12-26.85-11.62-40.1-17.82-12.89-6-25.12-13.11-36-22.27-11.51-9.7-15.09-27-3.54-40.24C50.63,50.15,68.94,40.72,89.15,34.05c30.82-10.17,62.65-15.24,94.74-19,6.87-.8,13.22.63,18.36,5.73,2.24,2.23,4.63,4.32,6.87,6.55,5.42,5.39,4.82,11.64-1.18,16.56-7.25,5.94-16,8.77-24.42,12.22C157.62,66.71,130.26,71.59,103,77.08c-7.45,1.5-15,2.7-22.17,5.67-4,1.64-5.46,4.2-5.33,7.89.13,3.45,2.63,5.75,5.55,7a164,164,0,0,0,15.8,6.16c19.42,6.28,38.05,14.53,54.79,26.09,15.53,10.72,25,26,24.21,45.57-.39,9.13-4.62,17.56-10.31,24.93-6.09,7.89-14,13.67-22.33,18.95-12.64,8-24.24,17.67-38.47,23-13.22,5-26.36,5.45-38.82-1.94-15-8.91-31.5-13-48.31-16.35C11.71,222.9,5.88,221.27,0,219.84Z"/><path class="cls-1" d="M526.5,255.2c-4.49-1.47-10.53-1.78-14-4.91-8.31-7.46-18.44-10.45-28.35-14.07a38,38,0,0,1-13.71-8.74c-3.12-3-2.47-6,1.7-7.35,9.12-3,18.81-2.2,28.09-4,14.54-2.86,28.77-7.54,39.39-18,12.1-11.92,16.36-27.36,14.17-44.42-1.4-10.85-7-18.85-15.94-24.73-15.32-10.06-30.36-20.46-44.52-32.15-18.66-15.4-14.31-26.13-.64-40.94C510,37.07,531.72,24.52,555.28,15c10.79-4.35,21.35-9.17,33.14-10.58,8.14-1,19.54,4.12,23.46,11.25,2,3.61-.11,5.07-3,6.4C592.65,29.71,576.42,37.4,560.13,45c-6.34,3-12.53,6.16-18.73,9.39a52.4,52.4,0,0,0-19.31,17C516.26,80,516.57,85,525.32,89.24c7.62,3.69,14.83,8.23,22.21,12.42,17.09,9.71,30.29,23.57,40.32,40.11,6.38,10.51,7.89,22.87,8,35.14a137.44,137.44,0,0,1-.75,17.46c-2,16.47-9.79,29.59-22.82,40-10.32,8.22-22.36,13.09-34.06,18.6C534.89,254.5,530.78,254.43,526.5,255.2Z"/><path class="cls-1" d="M282.43,192.86c.39-2.79-.18-6.09,1.17-9.34,3.09-7.44,9.75-9.26,16.45-10.06,9.38-1.13,16.83,2,22.15,10.79A59.6,59.6,0,0,1,330.81,214c.44,14.46-10.11,22.18-23.77,17.75C290.22,226.28,281.91,213.32,282.43,192.86Z"/></g></g></svg>